<svg id="Capa_1" enable-background="new 0 0 512.004 512.004" height="512" viewBox="0 0 512.004 512.004" width="512" xmlns="http://www.w3.org/2000/svg"><g><g><g clip-rule="evenodd" fill-rule="evenodd"><circle cx="256.002" cy="256.002" fill="#ffc464" r="65"/><path d="m241.002 99.207v93.535c9.817-2.319 20.184-2.322 30 .003v-93.538c-9.963-.941-20.037-.942-30 0zm136.476 257.057-66.141-66.141c-5.323 8.613-12.6 15.89-21.216 21.21l66.144 66.145c7.725-6.383 14.831-13.488 21.213-21.214zm-58.219-115.262h93.538c.941 9.963.941 20.037 0 30h-93.534c2.319-9.817 2.322-20.184-.004-30zm58.219-85.262-66.141 66.141c-5.323-8.613-12.6-15.891-21.216-21.21l66.144-66.145c7.725 6.383 14.831 13.488 21.213 21.214zm-136.476 257.057v-93.535c9.817 2.319 20.184 2.322 30-.003v93.538c-9.963.941-20.037.942-30 0zm-106.476-56.533 66.141-66.141c5.323 8.613 12.6 15.89 21.216 21.21l-66.145 66.145c-7.724-6.383-14.83-13.488-21.212-21.214zm58.219-115.262h-93.538c-.941 9.963-.941 20.037 0 30h93.535c-2.32-9.817-2.323-20.184.003-30zm-58.219-85.262 66.141 66.141c5.323-8.613 12.6-15.891 21.216-21.21l-66.145-66.145c-7.724 6.383-14.83 13.488-21.212 21.214z" fill="#ffc464"/><path d="m241.002 99.207v22.628c4.926-.544 9.929-.833 15-.833s10.074.289 15 .833v-22.628c-9.963-.941-20.037-.942-30 0zm-120 156.795c0 5.071.289 10.074.833 15h-22.628c-.942-9.963-.941-20.037 0-30h22.628c-.544 4.926-.833 9.929-.833 15zm29.523 84.264c6.264 7.831 13.382 14.949 21.213 21.213l-15.999 15.999c-7.725-6.383-14.831-13.488-21.213-21.214zm90.477 49.903c4.926.544 9.929.833 15 .833s10.074-.289 15-.833v22.628c-9.963.941-20.037.941-30 0zm99.264-28.69c7.831-6.265 14.949-13.382 21.213-21.213l15.999 15.999c-6.382 7.725-13.488 14.831-21.213 21.214zm49.903-90.477c.545-4.925.833-9.929.833-15s-.289-10.074-.833-15h22.629c.941 9.963.941 20.037 0 30zm-28.69-99.264c-6.264-7.831-13.382-14.949-21.213-21.213l15.999-15.999c7.725 6.383 14.831 13.488 21.213 21.214zm-189.741-21.213c-7.831 6.264-14.95 13.382-21.213 21.213l-15.999-15.999c6.382-7.725 13.488-14.831 21.213-21.214z" fill="#ff8d4c"/><path d="m98.502 256.002c0-87.116 70.634-157.5 157.5-157.5s157.5 70.384 157.5 157.5-70.634 157.5-157.5 157.5-157.5-70.384-157.5-157.5zm-30 0c0 103.662 84.054 187.5 187.5 187.5s187.5-83.838 187.5-187.5-84.054-187.5-187.5-187.5-187.5 83.838-187.5 187.5z" fill="#ffc464"/><path d="m69.093 241.002h-31.59v30h31.59c-.789-9.975-.789-20.026 0-30zm373.818 0h31.59v30h-31.59c.789-9.975.789-20.026 0-30zm-21.8 158.896-22.343-22.343c-6.496 7.622-13.591 14.717-21.213 21.213l22.342 22.343zm0-287.792-22.343 22.343c-6.496-7.622-13.591-14.717-21.213-21.213l22.342-22.343zm-330.219 287.792 22.343-22.343c6.496 7.622 13.591 14.717 21.213 21.213l-22.342 22.343zm150.11 74.604v-31.591c9.975.79 20.025.79 30 0v31.591zm-150.11-362.396 22.343 22.343c6.496-7.622 13.591-14.717 21.213-21.213l-22.342-22.343zm150.11-74.604v31.591c9.975-.79 20.025-.79 30 0v-31.591z" fill="#ff8d4c"/><path d="m37.503 241.002c0-8.25-6.753-15-14.999-15-8.164 0-14.861 6.607-15.002 14.738v30.261c0 8.253 6.748 15 15.002 15 8.251 0 14.999-6.75 14.999-15zm436.998 0c0-8.25 6.753-15 14.999-15 8.163 0 14.861 6.607 15.001 14.738v30.261c0 8.253-6.748 15-15.001 15-8.251 0-14.999-6.75-14.999-15zm-74.603 180.109c-5.833 5.834-5.834 15.38 0 21.213 5.834 5.834 15.379 5.834 21.213 0l21.213-21.213c5.834-5.834 5.834-15.379 0-21.213s-15.38-5.834-21.213 0zm0-330.218c-5.833-5.834-5.834-15.38 0-21.213 5.834-5.834 15.379-5.834 21.213 0l21.213 21.213c5.834 5.834 5.834 15.379 0 21.213s-15.38 5.834-21.213 0zm-158.896 383.609h30c8.25 0 15 6.75 15 15 0 8.251-6.75 15-15 15h-30c-8.251 0-15-6.75-15-15 0-8.251 6.75-15 15-15zm-128.896-53.391c5.833 5.834 5.834 15.38 0 21.213-5.834 5.834-15.379 5.834-21.213 0l-21.213-21.213c-5.834-5.834-5.834-15.379 0-21.213s15.38-5.834 21.213 0zm128.896-383.609h30c8.25 0 15-6.75 15-15s-6.75-15-15-15h-30c-8.251 0-15 6.75-15 15s6.75 15 15 15zm-128.896 53.391c5.833-5.834 5.834-15.38 0-21.213-5.834-5.834-15.379-5.834-21.213 0l-21.214 21.213c-5.834 5.834-5.834 15.379 0 21.213s15.38 5.834 21.213 0z" fill="#ffc464"/><path d="m191.002 256.002c0 35.898 29.102 65 65 65 3.837 0 7.595-.335 11.25-.973-30.536-5.329-53.75-31.966-53.75-64.027s23.214-58.698 53.75-64.027c-3.654-.638-7.413-.973-11.25-.973-35.898 0-65 29.102-65 65z" fill="#ff8d4c"/><path d="m7.502 248.502v22.5c0 8.253 6.748 15 15.002 15 8.251 0 14.999-6.75 14.999-15v-22.5c0 8.25-6.748 15-14.999 15-8.254 0-15.002-6.747-15.002-15zm497 0v22.5c0 8.253-6.748 15-15.001 15-8.251 0-14.999-6.75-14.999-15v-22.5c0 8.25 6.748 15 14.999 15 8.253 0 15.001-6.747 15.001-15zm-83.391 193.822 15.91-15.91c-5.833 5.833-15.379 5.834-21.213 0-5.833-5.834-5.834-15.379 0-21.213l-15.91 15.91c-5.834 5.834-5.834 15.38 0 21.213 5.834 5.834 15.38 5.834 21.213 0zm0-330.219-15.91-15.91c5.833 5.833 15.379 5.834 21.213 0 5.833-5.834 5.834-15.379 0-21.213l15.91 15.91c5.834 5.834 5.834 15.38 0 21.213-5.833 5.834-15.379 5.834-21.213 0zm-180.109 362.397h22.5c-8.25 0-15 6.749-15 15 0 8.25 6.75 15 15 15h-22.5c-8.251 0-15-6.75-15-15 0-8.251 6.75-15 15-15zm-150.109-32.177-15.91-15.91c5.833 5.833 15.379 5.834 21.213 0 5.833-5.834 5.834-15.379 0-21.213l15.91 15.91c5.834 5.834 5.834 15.38 0 21.213-5.834 5.834-15.38 5.833-21.213 0zm150.109-404.823h22.5c-8.25 0-15-6.75-15-15s6.75-15 15-15h-22.5c-8.251 0-15 6.75-15 15s6.75 15 15 15zm-150.109 74.604 15.91-15.91c-5.833 5.833-15.379 5.834-21.213 0-5.833-5.834-5.834-15.379 0-21.213l-15.91 15.91c-5.834 5.834-5.834 15.38 0 21.213 5.833 5.834 15.379 5.833 21.213 0z" fill="#ff8d4c"/></g><g><path d="m293.502 251.001h-15v-15h15zm-30-15h-15v-15h15z" fill="#fff"/></g></g><g><path d="m256.002 421.002c90.981 0 165-74.019 165-165s-74.019-165-165-165-165 74.019-165 165 74.019 165 165 165zm-150-165c0-2.515.065-5.015.188-7.5h77.7c-.255 2.466-.387 4.968-.387 7.5s.133 5.034.387 7.5h-77.7c-.123-2.485-.188-4.985-.188-7.5zm117.197-64.622-56.108-56.108c19.174-14.158 41.821-23.867 66.411-27.582v79.405c-3.564 1.166-7.004 2.603-10.303 4.285zm32.803 7.122c31.706 0 57.5 25.794 57.5 57.5s-25.794 57.5-57.5 57.5-57.5-25.794-57.5-57.5 25.794-57.5 57.5-57.5zm22.5-11.408v-79.405c24.59 3.715 47.237 13.424 66.411 27.582l-56.108 56.108c-3.299-1.681-6.739-3.118-10.303-4.285zm127.5 68.908c0 2.515-.065 5.015-.188 7.5h-77.7c.255-2.466.387-4.968.387-7.5s-.133-5.034-.387-7.5h77.7c.123 2.485.188 4.985.188 7.5zm-81.092 22.5h79.404c-3.715 24.59-13.424 47.237-27.582 66.411l-56.108-56.108c1.682-3.299 3.119-6.739 4.286-10.303zm0-45c-1.167-3.564-2.604-7.004-4.286-10.302l56.108-56.108c14.158 19.174 23.867 41.821 27.582 66.411h-79.404zm-91.408 91.408v79.405c-24.59-3.715-47.237-13.424-66.411-27.582l56.108-56.108c3.299 1.681 6.739 3.118 10.303 4.285zm-46.408-91.408h-79.404c3.715-24.59 13.424-47.237 27.582-66.411l56.108 56.108c-1.682 3.299-3.119 6.739-4.286 10.303zm0 45c1.167 3.564 2.604 7.004 4.286 10.302l-56.108 56.108c-14.158-19.174-23.867-41.821-27.582-66.411h79.404zm-42.278 78.079 54.922-54.922c3.162 3.89 6.717 7.445 10.607 10.607l-54.922 54.922c-3.709-3.358-7.249-6.898-10.607-10.607zm103.686 49.233v-77.7c2.466.255 4.968.387 7.5.387s5.034-.133 7.5-.387v15.413h15v-18.617c3.564-1.167 7.004-2.604 10.303-4.286l56.108 56.108c-19.174 14.158-41.821 23.867-66.411 27.582v-15.786h-15v17.286c-2.485.123-4.985.188-7.5.188s-5.015-.065-7.5-.188zm108.079-38.626-54.922-54.922c3.89-3.162 7.445-6.717 10.607-10.607l54.922 54.922c-3.358 3.709-6.898 7.249-10.607 10.607zm10.607-211.765-54.922 54.922c-3.162-3.89-6.717-7.445-10.607-10.607l54.922-54.922c3.709 3.358 7.249 6.898 10.607 10.607zm-103.686-49.233v77.7c-2.466-.255-4.968-.387-7.5-.387s-5.034.133-7.5.387v-77.7c2.485-.123 4.985-.188 7.5-.188s5.015.065 7.5.188zm-108.079 38.626 54.922 54.922c-3.89 3.162-7.445 6.717-10.607 10.607l-54.922-54.922c3.358-3.709 6.898-7.249 10.607-10.607z"/><path d="m263.502 358.528h15v15h-15z"/><path d="m489.5 218.502c-9.777 0-18.113 6.271-21.209 15h-18.595c-4.264-36.938-18.882-70.765-40.882-98.492l13.224-13.224c3.054 1.453 6.362 2.204 9.679 2.204 5.761 0 11.524-2.193 15.91-6.579 8.773-8.774 8.774-23.05.002-31.822l-21.213-21.213c-4.238-4.238-9.889-6.572-15.912-6.571-6.022.001-11.673 2.335-15.91 6.573-4.238 4.238-6.573 9.889-6.572 15.91 0 3.413.775 6.695 2.196 9.68l-13.223 13.223c-27.727-22-61.554-36.618-98.492-40.882v-18.597c8.729-3.096 15-11.432 15-21.209 0-12.407-10.093-22.5-22.5-22.5h-30c-12.407 0-22.5 10.093-22.5 22.5 0 9.778 6.271 18.114 15 21.21v18.587c-14.415 1.659-28.568 4.908-42.281 9.738l4.983 14.148c19.185-6.757 39.303-10.184 59.797-10.184 99.252 0 180 80.748 180 180s-80.748 180-180 180-180-80.748-180-180c0-70.902 41.837-135.429 106.585-164.391l-6.125-13.692c-15.05 6.732-28.953 15.242-41.515 25.209l-13.164-13.163c3.978-8.36 2.536-18.677-4.375-25.589-8.773-8.774-23.048-8.772-31.82 0l-21.212 21.213c-8.773 8.773-8.773 23.047 0 31.82 4.238 4.238 9.889 6.572 15.91 6.572 3.413 0 6.695-.774 9.68-2.195l13.191 13.191c-22.219 28.095-36.61 62.133-40.844 98.525h-18.6c-3.096-8.729-11.432-15-21.209-15-12.409 0-22.504 10.093-22.504 22.5v30c0 12.407 10.095 22.5 22.504 22.5 9.777 0 18.113-6.271 21.209-15h18.595c4.264 36.938 18.882 70.765 40.882 98.492l-13.224 13.224c-8.36-3.978-18.677-2.536-25.588 4.375-8.774 8.774-8.775 23.049-.002 31.822l21.213 21.213c4.386 4.386 10.146 6.58 15.909 6.579 5.763 0 11.527-2.194 15.914-6.582 6.911-6.911 8.353-17.227 4.374-25.588l13.225-13.225c27.727 22 61.554 36.618 98.493 40.882v18.596c-8.729 3.096-15 11.432-15 21.209 0 12.407 10.093 22.5 22.5 22.5h30c12.407 0 22.5-10.093 22.5-22.5 0-9.778-6.271-18.114-15-21.21v-18.596c36.938-4.264 70.765-18.882 98.492-40.882l13.225 13.225c-3.978 8.36-2.536 18.677 4.375 25.588 4.238 4.238 9.889 6.572 15.91 6.572s11.672-2.334 15.91-6.572l21.214-21.213c8.772-8.773 8.772-23.047 0-31.82-6.911-6.911-17.228-8.354-25.589-4.375l-13.225-13.225c22-27.727 36.618-61.554 40.882-98.492h18.595c3.096 8.729 11.432 15 21.209 15 12.409 0 22.504-10.093 22.504-22.5v-30c-.002-12.404-10.097-22.497-22.506-22.497zm-84.299-143.518c1.405-1.406 3.29-2.18 5.306-2.18s3.899.773 5.303 2.177l21.213 21.213c2.924 2.924 2.923 7.684-.002 10.609-2.923 2.924-7.682 2.924-10.606-.001l-21.214-21.212c-1.405-1.405-2.179-3.289-2.179-5.303-.001-2.015.773-3.898 2.179-5.303zm-5.304 26.516 10.607 10.607-11.488 11.488c-3.4-3.669-6.938-7.208-10.607-10.607zm-158.895-86.498h30c4.135 0 7.5 3.365 7.5 7.5s-3.365 7.5-7.5 7.5h-30c-4.135 0-7.5-3.365-7.5-7.5s3.365-7.5 7.5-7.5zm7.5 46.148v-16.148h15v16.158c-2.49-.095-4.987-.158-7.5-.158-2.506 0-5.005.054-7.5.148zm-173.52 45.652c-2.924-2.924-2.924-7.682 0-10.606l21.213-21.213c1.462-1.462 3.383-2.193 5.304-2.193 1.92 0 3.841.731 5.303 2.193 2.924 2.924 2.924 7.683 0 10.607l-21.214 21.213c-1.405 1.405-3.288 2.179-5.303 2.179s-3.897-.775-5.303-2.18zm26.517 5.304 10.607-10.607 11.424 11.423c-3.673 3.408-7.203 6.954-10.593 10.621zm-71.496 158.896c0 4.135-3.364 7.5-7.499 7.5-4.138 0-7.504-3.365-7.504-7.5v-30c0-4.135 3.366-7.5 7.504-7.5 4.135 0 7.499 3.365 7.499 7.5zm15-7.5v-15h16.146c-.096 2.492-.147 4.992-.147 7.5 0 2.513.064 5.01.158 7.5zm61.801 173.518c-2.925 2.926-7.685 2.928-10.609.003l-21.214-21.213c-2.924-2.924-2.923-7.684.002-10.609 1.462-1.462 3.382-2.193 5.303-2.193s3.841.731 5.304 2.193l21.213 21.213c2.924 2.924 2.925 7.682.001 10.606zm5.302-26.516-10.606-10.607 11.488-11.488c3.4 3.669 6.938 7.207 10.607 10.607zm158.896 86.498h-30c-4.135 0-7.5-3.365-7.5-7.5s3.365-7.5 7.5-7.5h30c4.135 0 7.5 3.365 7.5 7.5s-3.365 7.5-7.5 7.5zm-7.5-30h-15v-16.158c2.49.095 4.987.158 7.5.158s5.01-.063 7.5-.158zm173.519-61.801c2.924 2.924 2.924 7.683 0 10.607l-21.213 21.213c-1.405 1.405-3.289 2.178-5.303 2.179-2.015 0-3.899-.774-5.304-2.179-2.924-2.924-2.924-7.682 0-10.606l21.213-21.213c1.462-1.462 3.383-2.193 5.303-2.193 1.922-.001 3.842.73 5.304 2.192zm-26.516-5.303-10.607 10.607-11.489-11.489c3.669-3.399 7.207-6.938 10.607-10.607zm40.339-151.396h16.157v15h-16.157c.095-2.49.158-4.987.158-7.5s-.064-5.01-.158-7.5zm46.16 22.5c0 4.135-3.366 7.5-7.504 7.5-4.135 0-7.499-3.365-7.499-7.5v-30c0-4.135 3.364-7.5 7.499-7.5 4.138 0 7.504 3.365 7.504 7.5z"/></g></g></svg>